<?xml version="1.0" standalone="no"?>
<!DOCTYPE svg PUBLIC "-//W3C//DTD SVG 20010904//EN"
 "http://www.w3.org/TR/2001/REC-SVG-20010904/DTD/svg10.dtd">
<svg version="1.0" xmlns="http://www.w3.org/2000/svg"
 width="1833.000000pt" height="1833.000000pt" viewBox="0 0 1833.000000 1833.000000"
 preserveAspectRatio="xMidYMid meet">
<metadata>
Created by potrace 1.14, written by Peter Selinger 2001-2017
</metadata>
<g transform="translate(0.000000,1833.000000) scale(0.100000,-0.100000)"
fill="#000000" stroke="none">
<path d="M7338 18005 c-2 -2 -28 -5 -58 -8 -201 -21 -370 -147 -430 -322 -18
-52 -20 -76 -15 -205 3 -80 7 -167 10 -195 7 -74 14 -215 11 -215 -1 0 -27 4
-57 10 -30 5 -74 12 -99 15 -56 8 -97 14 -130 20 -14 3 -47 7 -75 11 -27 3
-59 8 -70 10 -10 2 -37 6 -60 9 -22 3 -62 10 -90 15 -51 10 -89 15 -183 26
-29 3 -62 7 -74 9 -11 3 -46 7 -77 10 -31 3 -67 8 -81 10 -36 7 -77 12 -145
20 -33 4 -71 9 -85 11 -14 2 -43 6 -65 8 -22 2 -85 9 -140 15 -165 17 -227 23
-285 26 -30 2 -95 6 -145 9 -111 8 -204 14 -338 21 -56 3 -129 8 -162 10 -33
2 -98 7 -145 10 -47 3 -103 8 -125 10 -49 6 -137 15 -190 20 -22 2 -65 6 -95
10 -30 3 -71 7 -90 9 -19 2 -55 6 -80 10 -25 3 -124 15 -220 27 -96 11 -184
22 -195 24 -11 2 -47 9 -80 15 -33 6 -114 22 -180 35 -209 42 -313 38 -430
-20 -142 -69 -257 -250 -280 -440 -4 -27 -8 -59 -10 -71 -2 -11 -6 -52 -10
-90 -4 -38 -9 -77 -11 -86 -1 -9 -6 -48 -9 -85 -4 -37 -9 -81 -12 -98 -12 -71
-10 -244 3 -313 32 -168 33 -230 8 -355 -18 -92 -22 -276 -9 -457 18 -248 8
-448 -25 -545 -11 -32 -46 -99 -79 -149 -186 -289 -246 -543 -199 -836 17
-105 14 -250 -7 -360 -2 -10 -7 -50 -10 -87 -4 -37 -9 -76 -10 -85 -2 -9 -7
-48 -10 -85 -4 -37 -8 -79 -10 -93 -2 -14 -7 -56 -10 -95 -4 -38 -8 -81 -10
-95 -2 -14 -6 -54 -10 -90 -3 -36 -8 -76 -10 -90 -3 -14 -7 -47 -10 -75 -8
-75 -14 -126 -19 -165 -3 -19 -8 -55 -11 -80 -3 -25 -10 -70 -15 -100 -5 -30
-12 -71 -15 -90 -12 -70 -15 -87 -35 -183 -28 -136 -92 -354 -130 -442 -5 -11
-32 -74 -60 -140 -29 -66 -72 -166 -96 -222 -71 -163 -96 -273 -97 -428 0
-130 3 -158 29 -270 18 -76 18 -109 0 -148 -36 -79 -61 -211 -59 -307 1 -25 4
-112 7 -195 6 -162 -4 -247 -49 -424 -13 -53 -26 -109 -29 -126 -3 -16 -10
-52 -16 -80 -66 -316 -84 -591 -44 -657 18 -29 23 -149 10 -258 -13 -104 -13
-150 -1 -221 14 -81 11 -120 -14 -196 -28 -81 -40 -131 -47 -194 -10 -76 -10
-275 -1 -329 27 -165 29 -378 3 -485 -20 -80 -29 -106 -66 -190 -26 -57 -54
-134 -53 -145 0 -3 -3 -14 -7 -26 -26 -68 -29 -267 -5 -385 21 -107 23 -118
29 -128 15 -24 28 -434 15 -471 -29 -83 -74 -283 -84 -380 -3 -30 -8 -77 -11
-105 -5 -50 -7 -185 -4 -410 2 -149 -2 -169 -49 -275 -22 -47 -58 -143 -81
-215 -40 -123 -89 -235 -217 -505 -75 -157 -88 -193 -114 -302 -33 -142 -31
-296 6 -450 21 -85 21 -86 35 -141 9 -33 11 -81 6 -150 -4 -56 -10 -139 -13
-184 -17 -267 136 -451 407 -488 25 -3 56 -8 70 -10 14 -2 44 -6 68 -9 23 -3
61 -9 85 -12 42 -6 60 -8 151 -20 27 -3 57 -7 66 -9 10 -2 61 -9 115 -15 54
-6 105 -13 114 -15 15 -2 75 -10 166 -21 22 -2 51 -7 65 -9 14 -2 50 -7 80
-10 30 -3 62 -8 70 -10 8 -2 44 -7 80 -10 36 -3 72 -8 80 -10 8 -2 40 -6 71
-10 31 -3 66 -7 77 -10 11 -2 49 -6 84 -10 35 -3 74 -8 88 -10 24 -4 55 -8
145 -19 95 -11 151 -19 165 -21 8 -1 46 -6 83 -10 37 -3 76 -8 85 -10 9 -1 51
-6 92 -10 41 -4 77 -9 80 -10 3 -2 32 -6 65 -9 33 -3 78 -8 100 -11 22 -3 81
-10 130 -16 50 -6 101 -12 115 -14 70 -10 110 -15 155 -20 119 -15 146 -18
300 -40 61 -9 126 -18 145 -21 20 -2 45 -6 56 -8 12 -2 45 -7 75 -11 30 -3 61
-8 69 -10 8 -2 35 -7 60 -11 73 -10 80 -11 190 -29 58 -9 115 -18 127 -20 13
-2 42 -7 65 -11 24 -4 52 -8 63 -10 11 -1 63 -10 115 -19 52 -9 111 -19 130
-21 19 -3 46 -7 60 -9 14 -3 63 -12 110 -20 47 -8 96 -17 110 -20 14 -3 66
-12 115 -21 125 -21 137 -23 161 -28 12 -2 39 -7 60 -10 22 -3 50 -8 64 -11
47 -8 105 -16 149 -20 24 -3 60 -7 80 -9 20 -3 68 -8 106 -10 39 -3 102 -8
140 -11 86 -7 203 -12 405 -20 159 -6 296 -12 455 -20 253 -13 295 -15 355
-20 36 -2 115 -7 175 -10 61 -4 130 -8 155 -11 25 -2 88 -6 140 -9 52 -3 106
-8 120 -10 14 -2 61 -7 105 -10 44 -3 96 -7 115 -10 19 -2 64 -7 100 -10 36
-4 81 -8 100 -10 19 -2 71 -7 115 -10 44 -4 89 -9 100 -11 10 -2 49 -6 85 -9
36 -4 81 -8 100 -10 19 -2 67 -7 105 -10 39 -4 81 -8 95 -11 14 -2 54 -7 90
-9 36 -3 76 -7 90 -10 39 -6 121 -16 165 -20 114 -11 157 -16 230 -26 44 -6
91 -12 105 -14 46 -5 145 -16 170 -20 64 -9 136 -19 150 -20 8 -1 33 -4 55 -8
22 -4 60 -9 85 -12 25 -3 70 -10 100 -15 30 -5 75 -11 100 -14 25 -4 55 -8 67
-10 11 -3 43 -8 70 -12 26 -3 57 -8 68 -10 11 -3 40 -7 65 -10 25 -3 52 -7 60
-9 8 -2 40 -7 70 -10 30 -3 66 -8 80 -10 29 -5 179 -24 230 -30 71 -8 145 -17
160 -20 8 -1 47 -6 85 -9 39 -4 81 -9 95 -11 14 -2 50 -7 80 -10 30 -3 71 -8
90 -10 19 -3 58 -7 85 -10 28 -3 66 -8 85 -10 19 -2 64 -7 100 -10 36 -4 76
-8 90 -10 14 -2 57 -6 95 -9 73 -6 151 -14 220 -21 93 -10 143 -16 190 -20 28
-3 66 -8 85 -10 70 -9 116 -15 160 -20 25 -3 79 -10 120 -15 112 -16 130 -18
195 -25 33 -3 72 -8 87 -11 15 -3 44 -7 65 -9 158 -15 194 -18 238 -16 278 9
346 9 385 2 25 -5 61 -11 80 -14 59 -9 86 -16 355 -84 231 -58 303 -76 355
-88 8 -2 128 -32 265 -67 239 -60 255 -63 366 -62 94 0 127 5 175 23 94 35
166 109 198 206 22 63 31 189 18 236 -8 32 -5 44 30 115 22 43 62 112 89 152
76 114 144 272 164 381 3 14 7 37 10 51 3 14 7 52 10 85 14 152 28 238 60 358
13 52 26 107 29 123 6 39 18 133 21 164 5 52 24 221 30 260 2 14 7 57 11 95 3
39 8 78 9 87 2 9 7 48 10 85 4 37 8 75 10 83 2 8 7 47 11 85 8 86 8 86 34 160
30 86 57 208 65 295 3 41 8 82 10 90 2 8 7 44 10 80 4 36 8 78 11 93 2 16 6
47 9 70 2 23 8 74 12 112 14 124 8 344 -12 446 -3 13 -10 49 -16 79 -22 114
-22 154 -1 196 10 21 24 62 30 89 10 45 14 76 27 215 3 25 7 65 11 90 3 25 7
65 10 90 2 25 9 72 13 105 18 116 4 323 -27 405 -5 13 -5 40 -1 60 4 19 10 51
14 70 8 52 44 244 60 325 8 39 23 120 35 180 11 61 22 121 25 135 3 14 9 50
15 80 6 30 13 66 16 80 14 60 25 118 31 165 7 48 7 398 0 597 -2 53 2 145 9
205 7 59 15 137 19 173 4 36 8 72 10 80 2 8 6 44 10 80 4 47 17 86 45 141 64
123 126 308 146 434 3 20 8 47 10 59 2 11 7 59 10 106 3 47 12 135 19 195 19
154 24 219 31 390 8 221 7 219 73 350 53 107 76 164 98 246 4 13 7 96 7 184 1
151 3 166 33 260 18 55 35 120 39 145 3 25 8 54 10 65 6 33 14 236 19 470 2
121 6 229 8 240 3 11 8 60 12 108 3 48 8 96 10 105 1 9 6 47 9 84 4 37 9 77
11 90 2 13 6 46 10 73 3 28 8 57 10 65 22 78 22 422 0 530 -37 184 -41 256
-17 332 46 145 49 174 39 448 -6 163 -1 206 48 405 59 244 86 396 110 645 4
36 8 76 10 90 2 14 6 48 9 75 3 28 8 73 11 100 3 28 7 61 10 75 2 14 6 54 9
90 4 36 8 76 11 89 2 13 7 56 11 95 8 89 4 71 48 209 20 64 39 125 41 135 17
76 61 217 86 281 47 116 58 166 55 252 -4 99 -44 188 -115 259 -92 91 -173
118 -426 145 -33 4 -71 8 -85 10 -14 2 -52 7 -85 10 -142 16 -275 36 -365 55
-25 5 -56 12 -70 14 -14 2 -122 22 -240 44 -206 39 -238 44 -340 57 -41 6
-128 19 -190 29 -14 3 -59 10 -100 16 -41 7 -84 14 -95 16 -11 2 -40 7 -65 10
-25 3 -52 7 -61 10 -9 3 -34 7 -55 9 -22 3 -61 10 -89 15 -27 5 -68 12 -90 15
-37 4 -64 9 -125 20 -14 3 -47 7 -75 11 -27 3 -59 8 -69 10 -11 2 -54 8 -96
14 -42 6 -85 12 -96 14 -17 3 -55 8 -169 21 -133 16 -256 28 -415 39 -41 3
-100 8 -130 11 -30 3 -89 7 -130 10 -41 3 -95 7 -120 10 -25 2 -83 7 -130 10
-47 4 -105 8 -130 11 -25 2 -85 6 -135 9 -49 3 -108 8 -130 10 -22 2 -85 7
-140 11 -55 3 -116 8 -135 10 -19 2 -82 6 -140 9 -58 3 -115 8 -126 10 -12 2
-71 6 -130 10 -60 4 -125 8 -144 10 -33 3 -112 10 -255 20 -69 5 -195 12 -410
20 -82 3 -187 8 -233 10 l-82 5 -118 118 c-148 150 -296 267 -489 391 -50 32
-309 165 -353 181 -19 7 -37 14 -40 15 -3 1 -17 7 -33 13 -30 13 -176 63 -192
66 -5 1 -26 7 -45 14 -19 6 -46 14 -60 16 -14 3 -79 16 -145 30 -140 28 -174
33 -298 43 -197 15 -444 6 -629 -23 l-97 -15 -43 27 c-212 134 -701 380 -933
468 -38 15 -78 31 -87 36 -39 21 -364 134 -418 145 -60 13 -205 26 -212 20z"/>
</g>
</svg>
